<?xml version="1.0" encoding="iso-8859-1"?>
<!-- Uploaded to: SVG Repo, www.svgrepo.com, Generator: SVG Repo Mixer Tools -->
<svg fill="#000000" height="800px" width="800px" version="1.1" id="Layer_1" xmlns="http://www.w3.org/2000/svg" xmlns:xlink="http://www.w3.org/1999/xlink" 
	 viewBox="0 0 512 512" xml:space="preserve">
<g>
	<g>
		<path d="M503.551,415.929h-39.705c-15.04-6.34-139.118-59.912-177.187-116.255c-1.573-2.325-4.195-3.719-7.002-3.719h-47.315
			c-2.806,0-5.429,1.394-7.002,3.719C187.297,355.98,63.196,409.584,48.153,415.929H8.449c-4.667,0-8.449,3.783-8.449,8.449
			c0,4.666,3.782,8.449,8.449,8.449h495.102c4.667,0,8.449-3.783,8.449-8.449C512,419.712,508.218,415.929,503.551,415.929z
			 M89.036,415.929c11.873-5.707,25.771-12.708,40.289-20.688c52.226-28.712,88.323-56.406,107.397-82.387h38.557
			c19.074,25.982,55.17,53.676,107.397,82.387c14.517,7.981,28.415,14.981,40.288,20.688H89.036z"/>
	</g>
</g>
<g>
	<g>
		<path d="M503.551,448.034H8.449c-4.667,0-8.449,3.783-8.449,8.449c0,4.666,3.782,8.449,8.449,8.449h495.102
			c4.667,0,8.449-3.783,8.449-8.449C512,451.817,508.217,448.034,503.551,448.034z"/>
	</g>
</g>
<g>
	<g>
		<path d="M236.772,338.618c-3.973-2.446-9.177-1.21-11.624,2.762c-0.175,0.283-17.716,28.556-40.158,48.861
			c-3.46,3.131-3.728,8.474-0.596,11.934c1.667,1.844,3.964,2.78,6.267,2.78c2.021,0,4.05-0.721,5.667-2.183
			c24.273-21.962,42.448-51.295,43.209-52.533C241.983,346.267,240.744,341.064,236.772,338.618z"/>
	</g>
</g>
<g>
	<g>
		<path d="M327.009,390.242c-22.441-20.305-39.983-48.579-40.158-48.861c-2.447-3.972-7.651-5.211-11.622-2.765
			c-3.973,2.446-5.214,7.649-2.768,11.624c0.763,1.238,18.938,30.57,43.209,52.533c1.618,1.463,3.644,2.183,5.667,2.183
			c2.304,0,4.6-0.937,6.267-2.78C330.736,398.716,330.469,393.373,327.009,390.242z"/>
	</g>
</g>
<g>
	<g>
		<path d="M255.999,372.286c-4.667,0-8.449,3.783-8.449,8.449v15.772c0,4.666,3.782,8.449,8.449,8.449s8.449-3.783,8.449-8.449
			v-15.772C264.449,376.069,260.667,372.286,255.999,372.286z"/>
	</g>
</g>
<g>
	<g>
		<path d="M232.343,223.579c-4.667,0-8.449,3.783-8.449,8.449v46.189c0,4.666,3.782,8.449,8.449,8.449s8.449-3.783,8.449-8.449
			v-46.189C240.792,227.362,237.01,223.579,232.343,223.579z"/>
	</g>
</g>
<g>
	<g>
		<path d="M279.656,223.579c-4.667,0-8.449,3.783-8.449,8.449v46.189c0,4.666,3.782,8.449,8.449,8.449s8.449-3.783,8.449-8.449
			v-46.189C288.105,227.362,284.324,223.579,279.656,223.579z"/>
	</g>
</g>
<g>
	<g>
		<path d="M423.115,112.127c0-35.873-29.18-65.059-65.048-65.059c-25.886,0-48.909,15.417-59.26,38.206
			c-5.753-3.763-12.569-5.896-19.715-5.896c-8.577,0-16.7,3.018-23.095,8.364c-6.394-5.346-14.518-8.364-23.095-8.364
			c-10.812,0-20.882,4.86-27.631,12.906c-5.005-2.543-10.575-3.893-16.305-3.893c-19.878,0-36.05,16.172-36.05,36.05
			c0,0.83,0.028,1.657,0.085,2.481c-10.512,3.509-18.11,13.444-18.11,25.12c0,4.901,1.37,9.658,3.881,13.77
			c-3.261,5.512-5.008,11.823-5.008,18.337c0.001,19.879,16.174,36.051,36.051,36.051c2.005,0,3.984-0.161,5.927-0.482
			c4.235,8.988,13.351,15.128,23.927,15.128c14.598,0,26.474-11.876,26.474-26.474c0-4.666-3.782-8.449-8.449-8.449
			s-8.449,3.783-8.449,8.449c0,5.28-4.296,9.576-9.576,9.576c-5.153,0-9.347-4.04-9.548-9.2c-0.11-2.84-1.64-5.435-4.073-6.904
			c-2.432-1.47-5.44-1.619-8.006-0.395c-2.578,1.229-5.346,1.853-8.227,1.853c-10.56,0-19.152-8.591-19.152-19.152
			c0-4.792,1.78-9.38,5.012-12.915c1.528-1.671,2.322-3.887,2.201-6.148c-0.119-2.262-1.142-4.381-2.839-5.882
			c-2.094-1.853-3.249-4.397-3.249-7.163c0-5.28,4.296-9.576,9.576-9.576c0.284,0,0.589,0.016,0.935,0.05
			c2.905,0.282,5.739-0.956,7.511-3.268c1.773-2.311,2.231-5.373,1.211-8.1c-0.802-2.145-1.208-4.401-1.208-6.706
			c0-10.56,8.591-19.152,19.152-19.152c4.831,0,9.447,1.808,12.996,5.091c1.999,1.849,4.766,2.619,7.433,2.075
			c2.667-0.546,4.906-2.344,6.018-4.83c3.082-6.895,9.948-11.349,17.489-11.349c6.474,0,12.467,3.243,16.029,8.676
			c1.563,2.382,4.219,3.817,7.066,3.817c2.848,0,5.505-1.435,7.066-3.817c3.561-5.432,9.552-8.676,16.029-8.676
			c7.541,0,14.406,4.456,17.489,11.349c1.111,2.485,3.352,4.283,6.019,4.83c2.664,0.546,5.432-0.226,7.432-2.075
			c3.549-3.283,8.164-5.091,12.996-5.091c10.56,0,19.152,8.591,19.152,19.152c0,2.305-0.406,4.56-1.208,6.703
			c-1.021,2.729-0.564,5.791,1.208,8.101c1.773,2.312,4.609,3.552,7.511,3.269c0.348-0.034,0.655-0.05,0.938-0.05
			c5.28,0,9.576,4.296,9.576,9.576c0,2.766-1.154,5.31-3.249,7.163c-1.697,1.501-2.718,3.62-2.839,5.882
			c-0.119,2.261,0.674,4.477,2.201,6.148c3.232,3.535,5.012,8.123,5.012,12.915c0,10.56-8.591,19.152-19.152,19.152
			c-2.882,0-5.65-0.623-8.227-1.853c-2.565-1.223-5.573-1.077-8.006,0.395c-2.432,1.47-3.963,4.064-4.073,6.904
			c-0.201,5.159-4.394,9.2-9.548,9.2c-5.28,0-9.576-4.296-9.576-9.576c0-4.666-3.782-8.449-8.449-8.449s-8.449,3.783-8.449,8.449
			c0,14.598,11.876,26.474,26.474,26.474c10.577,0,19.692-6.14,23.927-15.128c1.943,0.321,3.92,0.482,5.927,0.482
			c19.878,0,36.05-16.172,36.05-36.05c0-3.325-0.461-6.595-1.339-9.735C403.89,166.288,423.115,141.236,423.115,112.127z
			 M376.697,156.568c0.259-1.486,0.408-2.998,0.408-4.527c0-11.677-7.598-21.612-18.11-25.12c0.056-0.822,0.085-1.65,0.085-2.481
			c0-19.878-16.172-36.05-36.05-36.05c-2.472,0-4.91,0.266-7.288,0.756c8.254-15.15,24.357-25.179,42.327-25.179
			c26.55,0,48.149,21.605,48.149,48.161C406.219,131.957,394.182,149.246,376.697,156.568z"/>
	</g>
</g>
<g>
	<g>
		<path d="M255.999,158.238c-4.667,0-8.449,3.783-8.449,8.449v116.036c0,4.666,3.782,8.449,8.449,8.449s8.449-3.783,8.449-8.449
			V166.688C264.449,162.021,260.667,158.238,255.999,158.238z"/>
	</g>
</g>
<g>
	<g>
		<path d="M218.276,148.32c-8.783-8.783-23.077-8.785-31.864,0c-4.255,4.255-6.598,9.914-6.598,15.932
			c0,6.018,2.343,11.677,6.599,15.933c1.649,1.649,3.812,2.474,5.974,2.474c2.162,0,4.325-0.825,5.975-2.475
			c3.3-3.3,3.3-8.65-0.001-11.949c-1.063-1.063-1.649-2.478-1.649-3.982s0.586-2.919,1.649-3.982c2.198-2.197,5.769-2.197,7.967,0
			c3.299,3.3,8.649,3.299,11.948,0C221.577,156.97,221.577,151.62,218.276,148.32z"/>
	</g>
</g>
<g>
	<g>
		<path d="M323.116,146.183c-11.453-11.453-30.092-11.453-41.544,0c-3.301,3.3-3.301,8.65-0.001,11.949c3.3,3.299,8.65,3.3,11.948,0
			c4.867-4.866,12.785-4.865,17.648,0c2.358,2.357,3.656,5.491,3.656,8.824c0,3.334-1.298,6.466-3.655,8.823
			c-3.301,3.297-3.301,8.647-0.001,11.947c1.65,1.649,3.812,2.475,5.975,2.475c2.162,0,4.325-0.825,5.974-2.474
			c5.549-5.548,8.606-12.926,8.606-20.773S328.665,151.731,323.116,146.183z"/>
	</g>
</g>
</svg>