<?xml version="1.0" encoding="iso-8859-1"?>
<!-- Uploaded to: SVG Repo, www.svgrepo.com, Generator: SVG Repo Mixer Tools -->
<svg fill="#000000" version="1.1" id="Layer_1" xmlns="http://www.w3.org/2000/svg" xmlns:xlink="http://www.w3.org/1999/xlink" 
	 viewBox="0 0 511.999 511.999" xml:space="preserve">
<g>
	<g>
		<rect x="239.304" y="11.13" width="33.391" height="89.044"/>
	</g>
</g>
<g>
	<g>
		<rect x="89.767" y="73.07" transform="matrix(0.7071 -0.7071 0.7071 0.7071 -51.9675 109.7217)" width="33.391" height="89.043"/>
	</g>
</g>
<g>
	<g>
		
			<rect x="388.83" y="372.14" transform="matrix(0.7071 -0.7071 0.7071 0.7071 -175.8486 408.7869)" width="33.391" height="89.043"/>
	</g>
</g>
<g>
	<g>
		<rect x="422.957" y="250.434" width="89.042" height="33.391"/>
	</g>
</g>
<g>
	<g>
		<rect y="250.434" width="89.042" height="33.391"/>
	</g>
</g>
<g>
	<g>
		
			<rect x="361.013" y="100.893" transform="matrix(0.7071 -0.7071 0.7071 0.7071 35.6304 321.1969)" width="89.042" height="33.391"/>
	</g>
</g>
<g>
	<g>
		<path d="M254.145,408.115c0-51.226-41.527-92.753-92.753-92.753s-92.754,41.528-92.754,92.753
			c-25.612,0-46.376,20.764-46.376,46.377s20.764,46.377,46.377,46.377h185.508c25.613,0,46.376-20.764,46.376-46.377
			S279.759,408.115,254.145,408.115z"/>
	</g>
</g>
<g>
	<g>
		<path d="M256,144.695c-67.619,0-122.435,54.815-122.435,122.435c0,5.989,0.439,11.875,1.269,17.634
			c8.634-1.84,17.522-2.793,26.557-2.793c33.694,0,65.372,13.122,89.198,36.948c17.239,17.239,28.873,38.588,33.989,61.84
			c2.493,1.033,4.917,2.197,7.276,3.468c50.125-15.332,86.58-61.954,86.58-117.097C378.435,199.51,323.619,144.695,256,144.695z"/>
	</g>
</g>
</svg>