<?xml version="1.0" standalone="no"?>
<!DOCTYPE svg PUBLIC "-//W3C//DTD SVG 20010904//EN"
 "http://www.w3.org/TR/2001/REC-SVG-20010904/DTD/svg10.dtd">
<svg version="1.0" xmlns="http://www.w3.org/2000/svg"
 width="512.000000pt" height="512.000000pt" viewBox="0 0 512.000000 512.000000"
 preserveAspectRatio="xMidYMid meet">

<g transform="translate(0.000000,512.000000) scale(0.100000,-0.100000)"
fill="#000000" stroke="none">
<path d="M2575 3555 c-177 -33 -350 -126 -466 -252 l-44 -48 -155 0 c-141 0
-162 -3 -235 -27 -115 -39 -199 -92 -290 -183 -64 -63 -90 -98 -123 -165 -59
-120 -76 -194 -76 -325 0 -134 17 -206 80 -333 104 -213 332 -364 573 -379 77
-5 88 -3 103 14 49 55 20 133 -50 133 -133 1 -292 69 -391 169 -111 111 -163
235 -162 389 0 162 51 284 165 398 140 140 323 192 517 148 84 -19 112 -11
148 41 51 75 158 163 253 209 121 58 181 71 308 70 167 -2 312 -59 445 -177
65 -57 146 -176 176 -257 26 -71 37 -82 113 -105 267 -83 395 -380 271 -631
-65 -133 -192 -222 -350 -245 -93 -14 -125 -35 -125 -84 0 -48 31 -75 88 -75
72 0 174 25 244 60 170 85 281 222 329 408 73 286 -95 596 -381 706 -38 14
-48 24 -64 62 -30 72 -110 188 -176 254 -189 189 -462 274 -725 225z"/>
<path d="M1951 2254 c-12 -15 -21 -37 -21 -49 0 -12 9 -34 21 -49 41 -52 129
-22 129 45 0 42 -35 79 -75 79 -24 0 -39 -7 -54 -26z"/>
<path d="M2240 2260 c-26 -26 -27 -90 -2 -113 26 -23 85 -22 106 2 26 29 24
91 -4 113 -29 24 -75 23 -100 -2z"/>
<path d="M2521 2254 c-12 -15 -21 -37 -21 -49 0 -12 9 -34 21 -49 41 -52 129
-22 129 45 0 42 -35 79 -75 79 -24 0 -39 -7 -54 -26z"/>
<path d="M2810 2260 c-24 -24 -26 -77 -4 -108 20 -30 83 -31 109 -2 27 30 25
88 -4 111 -30 25 -76 24 -101 -1z"/>
<path d="M3091 2254 c-12 -15 -21 -37 -21 -49 0 -12 9 -34 21 -49 42 -54 129
-21 129 49 0 68 -88 101 -129 49z"/>
<path d="M2110 1970 c-12 -12 -20 -33 -20 -55 0 -100 140 -101 143 -1 1 29 -5
43 -22 57 -30 25 -76 24 -101 -1z"/>
<path d="M2411 1964 c-12 -15 -21 -37 -21 -49 0 -38 37 -75 75 -75 65 0 99 84
52 128 -33 31 -80 29 -106 -4z"/>
<path d="M2720 1970 c-45 -45 -13 -130 50 -130 66 0 99 89 48 133 -27 23 -73
22 -98 -3z"/>
<path d="M3021 1964 c-12 -15 -21 -37 -21 -49 0 -38 37 -75 75 -75 65 0 99 84
52 128 -33 31 -80 29 -106 -4z"/>
<path d="M2292 1677 c-64 -68 26 -167 99 -108 17 13 23 29 23 56 0 68 -77 100
-122 52z"/>
<path d="M2580 1682 c-16 -13 -22 -29 -22 -57 0 -28 6 -44 22 -57 51 -41 120
-8 120 57 0 65 -69 98 -120 57z"/>
<path d="M2861 1674 c-12 -15 -21 -37 -21 -49 0 -35 37 -75 70 -75 44 0 74 31
74 75 0 70 -81 102 -123 49z"/>
<path d="M3150 1680 c-29 -29 -27 -94 2 -114 53 -38 118 -5 118 59 0 44 -29
75 -70 75 -17 0 -39 -9 -50 -20z"/>
<path d="M3431 1674 c-12 -15 -21 -37 -21 -49 0 -38 37 -75 74 -75 43 0 70 30
70 77 0 68 -82 99 -123 47z"/>
</g>
</svg>
