<?xml version="1.0" standalone="no"?>
<!DOCTYPE svg PUBLIC "-//W3C//DTD SVG 20010904//EN"
 "http://www.w3.org/TR/2001/REC-SVG-20010904/DTD/svg10.dtd">
<svg version="1.0" xmlns="http://www.w3.org/2000/svg"
 width="512.000000pt" height="512.000000pt" viewBox="0 0 512.000000 512.000000"
 preserveAspectRatio="xMidYMid meet">

<g transform="translate(0.000000,512.000000) scale(0.100000,-0.100000)"
fill="#000000" stroke="none">
<path d="M1941 4882 c-53 -27 -76 -65 -76 -125 1 -104 75 -194 325 -394 543
-435 786 -890 741 -1386 -28 -297 -102 -520 -360 -1071 -132 -279 -185 -409
-236 -566 -128 -400 -122 -751 18 -1039 39 -80 41 -82 53 -59 33 63 58 206 90
523 29 281 141 558 415 1025 358 608 465 918 476 1379 8 296 -26 514 -117 744
-192 488 -620 880 -1063 973 -97 20 -223 18 -266 -4z"/>
<path d="M2073 3654 c-60 -22 -93 -64 -93 -118 0 -33 15 -74 61 -167 56 -112
62 -132 67 -200 7 -118 -25 -198 -182 -454 -136 -222 -238 -466 -283 -675 -27
-126 -24 -386 5 -492 62 -228 167 -394 316 -505 32 -24 60 -42 62 -40 2 1 -4
43 -12 92 -35 210 -29 474 17 699 46 230 130 431 294 706 177 296 235 433 254
602 22 192 -25 346 -138 451 -104 97 -261 140 -368 101z"/>
<path d="M1527 3079 c-119 -28 -224 -123 -292 -264 -59 -122 -75 -188 -82
-330 -7 -168 9 -237 87 -374 50 -87 61 -100 57 -71 -9 64 13 211 44 304 54
162 121 267 270 421 109 113 129 146 129 208 0 94 -85 136 -213 106z"/>
<path d="M3683 2454 c-51 -19 -128 -86 -187 -163 -50 -65 -153 -241 -199 -339
-17 -37 -83 -164 -147 -282 -184 -338 -242 -458 -302 -629 -81 -232 -106 -447
-62 -541 24 -53 82 -117 92 -104 5 5 14 27 21 49 67 202 202 398 514 743 326
361 450 547 523 787 23 75 28 109 28 205 1 107 -1 119 -27 173 -39 78 -83 110
-155 114 -34 1 -74 -4 -99 -13z"/>
</g>
</svg>
