<?xml version="1.0" standalone="no"?>
<!DOCTYPE svg PUBLIC "-//W3C//DTD SVG 20010904//EN"
 "http://www.w3.org/TR/2001/REC-SVG-20010904/DTD/svg10.dtd">
<svg version="1.0" xmlns="http://www.w3.org/2000/svg"
 width="512.000000pt" height="512.000000pt" viewBox="0 0 512.000000 512.000000"
 preserveAspectRatio="xMidYMid meet">

<g transform="translate(0.000000,512.000000) scale(0.100000,-0.100000)"
fill="#000000" stroke="none">
<path d="M2290 4154 c-226 -44 -371 -204 -395 -437 -7 -62 -9 -68 -34 -73
-139 -29 -201 -52 -293 -113 -88 -57 -189 -163 -241 -252 -61 -104 -89 -205
-95 -341 l-4 -117 -41 -7 c-111 -18 -223 -78 -315 -167 -68 -67 -107 -135
-132 -233 -82 -318 110 -633 425 -699 105 -22 2685 -22 2790 0 250 53 425 257
442 517 12 174 -41 315 -161 433 -70 69 -168 128 -237 142 -16 3 -29 8 -29 10
0 3 9 51 21 106 96 462 -189 916 -647 1033 -136 34 -301 33 -429 -2 -49 -14
-97 -26 -106 -27 -8 -1 -35 23 -60 53 -53 65 -150 133 -222 156 -53 16 -192
26 -237 18z m180 -174 c52 -14 123 -62 155 -104 l27 -36 -87 -83 -87 -82 61
-53 61 -53 67 61 c80 73 193 132 312 161 118 30 272 24 386 -15 240 -82 417
-277 476 -522 27 -111 22 -252 -11 -359 -12 -38 -23 -71 -25 -73 -2 -2 -33
-10 -69 -17 -88 -19 -184 -65 -243 -119 l-48 -44 50 -51 c27 -28 53 -51 58
-51 5 0 25 14 45 31 153 135 427 112 556 -46 110 -133 130 -292 56 -442 -37
-74 -98 -131 -189 -176 l-66 -32 -1385 0 -1385 0 -67 33 c-83 40 -149 105
-191 186 -30 58 -32 67 -32 171 0 105 2 114 33 177 41 83 120 158 197 187 118
44 295 20 406 -55 l53 -35 55 56 56 56 -30 25 c-62 53 -144 100 -203 118 l-61
19 -7 55 c-4 36 -1 82 9 133 44 225 215 409 432 464 73 18 198 19 283 1 61
-12 64 -12 72 8 4 12 17 45 29 74 l21 53 -25 9 c-14 5 -55 15 -91 22 l-66 12
4 78 c5 89 35 149 100 201 72 58 212 84 308 57z"/>
<path d="M1550 1095 l0 -455 80 0 80 0 -2 453 -3 452 -77 3 -78 3 0 -456z"/>
<path d="M2030 1095 l0 -455 80 0 80 0 -2 453 -3 452 -77 3 -78 3 0 -456z"/>
<path d="M2510 1095 l0 -455 80 0 80 0 -2 453 -3 452 -77 3 -78 3 0 -456z"/>
<path d="M2990 1095 l0 -455 80 0 80 0 -2 453 -3 452 -77 3 -78 3 0 -456z"/>
<path d="M3470 1095 l0 -455 80 0 80 0 -2 453 -3 452 -77 3 -78 3 0 -456z"/>
</g>
</svg>
