<?xml version="1.0" encoding="iso-8859-1"?>
<!-- Uploaded to: SVG Repo, www.svgrepo.com, Generator: SVG Repo Mixer Tools -->
<svg fill="#000000" height="800px" width="800px" version="1.1" id="Layer_1" xmlns="http://www.w3.org/2000/svg" xmlns:xlink="http://www.w3.org/1999/xlink" 
	 viewBox="0 0 512 512" xml:space="preserve">
<g>
	<g>
		<path d="M224.771,479.273c-15.635,2.275-32.255,3.47-49.276,3.47c-24.373,0-47.928-2.444-68.924-7.02
			c-17.275,5.477-24.175,11.83-25.871,14.329c1.482,2.14,7.089,7.566,20.985,12.69c16.179,5.971,37.198,9.258,59.181,9.258
			s43.002-3.287,59.181-9.258c13.872-5.119,19.484-10.533,20.977-12.68C239.711,488.176,235.219,483.78,224.771,479.273z"/>
	</g>
</g>
<g>
	<g>
		<path d="M329.883,296.811c-32.606,6.757-70.739,10.389-110.501,10.389c-47.123,0-91.941-5.11-127.996-14.472
			c-29.076,9.065-38.618,18.804-40.109,21.785c1.499,2.977,11.276,13.05,41.708,22.284c30.362,9.215,70.055,14.289,111.768,14.289
			s81.405-5.075,111.768-14.289c30.449-9.239,40.22-19.318,41.71-22.288C356.946,311.849,349.844,304.527,329.883,296.811z"/>
	</g>
</g>
<g>
	<g>
		<path d="M256.818,392.429c-17.153,1.703-34.728,2.542-52.065,2.542c-30.852,0-62.464-2.654-91.101-8.119
			c-32.731,7.507-46.146,18.827-47.789,22.737c1.027,2.244,7.763,9.964,28.685,17.313c21.944,7.709,50.692,11.954,80.949,11.954
			s59.003-4.245,80.949-11.954c20.895-7.341,27.641-15.048,28.681-17.304C284.074,407.292,277.328,399.685,256.818,392.429z"/>
	</g>
</g>
<g>
	<g>
		<path d="M359.458,210.477c-33.186,5.828-71.234,8.951-110.819,8.951c-54.126,0-105.383-5.834-145.237-16.454
			c-35.492,9.054-48.93,19.526-51.86,23.763c2.744,3.909,14.952,13.704,47.129,22.532c33.011,9.057,75.88,14.045,120.711,14.045
			c44.831,0,87.7-4.987,120.711-14.045c32.126-8.814,44.344-18.594,47.116-22.515C385.138,223.898,377.562,217.372,359.458,210.477z
			"/>
	</g>
</g>
<g>
	<g>
		<path d="M409.556,16.938C372.044,6.015,322.689,0,270.582,0c-52.107,0-101.462,6.015-138.974,16.938
			C92.194,28.416,81.396,40.827,80.44,43.886c0.955,3.059,11.754,15.47,51.168,26.947c37.511,10.923,86.867,16.938,138.974,16.938
			c52.107,0,101.462-6.015,138.974-16.938c39.414-11.478,50.211-23.888,51.166-26.947C459.767,40.827,448.97,28.416,409.556,16.938z
			"/>
	</g>
</g>
<g>
	<g>
		<path d="M392.487,120.197c-36.014,7.455-78.06,11.46-121.906,11.46c-53.633,0-104.546-6.004-145.044-16.974
			c-38.848,8.893-54.747,19.51-58.96,24.278c3.897,4.355,17.996,14.064,52.05,22.642c35.691,8.991,81.864,13.94,130.013,13.94
			c48.148,0,94.321-4.95,130.011-13.94c33.896-8.537,48.021-18.196,51.994-22.582C427.842,135.94,418.698,128.268,392.487,120.197z"
			/>
	</g>
</g>
</svg>