<?xml version="1.0" encoding="iso-8859-1"?>
<!-- Uploaded to: SVG Repo, www.svgrepo.com, Generator: SVG Repo Mixer Tools -->
<svg fill="#000000" height="800px" width="800px" version="1.1" id="Layer_1" xmlns="http://www.w3.org/2000/svg" xmlns:xlink="http://www.w3.org/1999/xlink" 
	 viewBox="0 0 512 512" xml:space="preserve">
<g>
	<g>
		<path d="M256,78.769c-111.865,0-202.549,90.685-202.549,202.549c0,0,22.671-22.505,50.637-22.505
			c27.966,0,50.637,22.505,50.637,22.505s22.671-22.505,50.637-22.505c27.966,0,50.637,22.505,50.637,22.505
			s22.671-22.505,50.637-22.505c27.966,0,50.637,22.505,50.637,22.505s22.671-22.505,50.637-22.505s50.637,22.505,50.637,22.505
			C458.549,169.454,367.865,78.769,256,78.769z"/>
	</g>
</g>
<g>
	<g>
		<path d="M306.637,461.363c0,9.308-7.572,16.879-16.879,16.879s-16.879-7.571-16.879-16.879V312.404l-33.758-0.275v149.233
			c0,27.923,22.716,50.637,50.637,50.637s50.637-22.715,50.637-50.637H306.637z"/>
	</g>
</g>
<g>
	<g>
		<path d="M239.121,0v45.611c5.595-0.393,11.221-0.6,16.879-0.6s11.284,0.207,16.879,0.6V0H239.121z"/>
	</g>
</g>
</svg>