<?xml version="1.0" encoding="iso-8859-1"?>
<!-- Uploaded to: SVG Repo, www.svgrepo.com, Generator: SVG Repo Mixer Tools -->
<svg fill="#000000" height="800px" width="800px" version="1.1" id="Layer_1" xmlns="http://www.w3.org/2000/svg" xmlns:xlink="http://www.w3.org/1999/xlink" 
	 viewBox="0 0 512 512" xml:space="preserve">
<g>
	<g>
		<path d="M169.732,385.419H14.382v34.522h155.35c15.863,0,28.768,12.906,28.768,28.768c0,15.863-12.906,28.768-28.768,28.768
			s-28.768-12.906-28.768-28.768h-34.522c0,34.898,28.392,63.291,63.291,63.291s63.291-28.392,63.291-63.291
			C233.022,413.811,204.63,385.419,169.732,385.419z"/>
	</g>
</g>
<g>
	<g>
		<path d="M388.372,218.562c0-82.62-66.976-149.596-149.596-149.596S89.18,135.942,89.18,218.562
			c-41.309,0-74.798,33.489-74.798,74.798c0,3.914,0.304,7.756,0.883,11.507h223.511c15.863,0,28.768-12.906,28.768-28.768
			c0-15.863-12.906-28.768-28.768-28.768s-28.768,12.906-28.768,28.768h-34.522c0-34.898,28.392-63.291,63.291-63.291
			c34.898,0,63.291,28.392,63.291,63.291c0,34.898-28.392,63.291-63.291,63.291H30.245c13.69,17.504,34.99,28.768,58.935,28.768
			h299.192c41.309,0,74.798-33.489,74.798-74.798S429.681,218.562,388.372,218.562z"/>
	</g>
</g>
<g>
	<g>
		<path d="M384.55,0c-34.743,1.194-65.356,18.606-84.538,44.894c3.51,1.239,6.993,2.574,10.441,4.033
			c21.928,9.275,41.615,22.546,58.514,39.444c16.897,16.897,30.169,36.584,39.444,58.514c5.729,13.545,9.774,27.583,12.107,41.977
			c9.549,2.944,18.537,7.171,26.779,12.465c29.3-18.792,49.047-51.179,50.322-88.264C439.857,103.339,394.277,57.76,384.55,0z"/>
	</g>
</g>
</svg>